<svg id="Capa_1" enable-background="new 0 0 512.395 512.395" height="512" viewBox="0 0 512.395 512.395" width="512" xmlns="http://www.w3.org/2000/svg"><g><g><path d="m80.748 86.984c1 3.06.26 6.43-1.94 8.78-19.661 20.994-35.631 45.48-46.902 72.421l51.892 66.558h383.545l13.151-66.551c-11.123-26.592-26.824-50.793-46.136-71.598-2.18-2.36-2.92-5.71-1.93-8.77l22.45-69.18c1.78-5.5-2.32-11.14-8.1-11.14h-380.11c-5.78 0-9.89 5.64-8.1 11.14z" fill="#f2fbff"/><g><path d="m80.748 86.984c1 3.06.26 6.43-1.94 8.78-21.618 23.082-38.781 50.382-50.131 80.531 9.894 10.097 21.453 20.819 24.726 19.463 5.014-2.077 141.65-18.175 187.758-23.564 7.291-15.268 15.103-29.582 22.076-41.582 13.404-23.068 16.387-50.736 8.238-76.141l-11.491-35.826c-1.79-5.5 2.32-11.14 8.1-11.14h-201.416c-5.78 0-9.89 5.64-8.1 11.14z" fill="#dff6fd"/><g id="XMLID_1005_"><g><path d="m480.498 168.174c12.07 28.83 18.73 60.48 18.73 93.69 0 66.88-27.02 127.46-70.73 171.4l-344.7.23c-43.37-43.56-70.21-103.58-70.63-170.07-.21-33.78 6.48-65.97 18.73-95.25l25.67-11.1c24.76-10.71 53.26-8.21 75.77 6.66 13.3 8.78 28.65 13.23 44.06 13.23 12.01 0 24.05-2.7 35.2-8.17l8.39-4.12c22.21-10.89 48.21-10.89 70.42 0l8.39 4.12c25.45 12.49 55.6 10.56 79.26-5.06 13.26-8.76 28.61-13.23 44.04-13.23 10.76 0 21.56 2.17 31.73 6.57z" fill="#99e6fc"/><g id="XMLID_1006_"><g><path d="m358.638 308.904c14.99 22.83 18.01 51.5 8.11 76.96l-13.38 34.4-13.01 48.11-51.62-3.38 16.43-49.08 11.28-29.43c3.75-9.78 5.6-20.03 5.6-30.24 0-15.35-4.18-30.61-12.38-44.04-14.41-23.57-12-53.73 5.96-74.72l8.86-10.37c2.35-2.75 6.85-1.09 6.85 2.53v18.61c0 12.44 3.64 24.61 10.46 35l9.39 14.3z" fill="#6cf5c2"/><path d="m406.738 308.904c14.99 22.83 18.01 51.5 8.11 76.96l-14.55 39.24-11.49 25.8-48.45 17.47 13.01-48.11 13.38-34.4c9.9-25.46 6.88-54.13-8.11-76.96l-7.45-11.35c-6.26-20.51-1.87-43.24 12.53-60.07l8.87-10.37c2.35-2.75 6.85-1.09 6.85 2.53v18.61c0 12.44 3.64 24.61 10.46 35z" fill="#c2fae3"/></g></g></g></g><path d="m427.978 432.754c-113.93-24.48-344.18.74-344.18.74 43.21 43.41 102.82 70.49 169.07 71.38 68.66.92 130.89-26.64 175.63-71.61l.33-.333z" fill="#fccd7f"/><path d="m248.805 156.855c-9.554.886-18.985 3.488-27.817 7.819l-8.39 4.12c-11.15 5.47-23.19 8.17-35.2 8.17-15.41 0-30.76-4.45-44.06-13.23-22.51-14.87-51.01-17.37-75.77-6.66l-25.67 11.1c-12.25 29.28-18.94 61.47-18.73 95.25.42 66.49 27.26 126.51 70.63 170.07 0 0 129.281-12.314 190.76-11.431-33.293-41.302-59.611-101.32-59.974-158.639-.198-31.974 16.867-73.086 34.221-106.569z" fill="#62dbfb"/><g id="XMLID_1016_"><g><path d="m220.428 290.634c9.91 9.9 9.91 25.96 0 35.86l-19.22 19.23c-14.72 14.72-38.58 14.72-53.3 0l-37.15-37.16 37.15-37.16c14.72-14.71 38.58-14.71 53.3 0z" fill="#fee45a"/><path d="m110.758 308.564-29.05 28.13c-4.72 4.58-12.63 1.23-12.63-5.35v-45.56c0-6.58 7.91-9.93 12.63-5.35z" fill="#fece85"/></g></g><g id="XMLID_1051_"><g><path d="m201.208 271.404 19.22 19.23c9.91 9.9 9.91 25.96 0 35.86l-19.22 19.23c-.07.07-.13.13-.2.2l-.01-.01c-11.59-8.35-19.15-21.96-19.15-37.35 0-15.38 7.56-29 19.15-37.35l.01-.01z" fill="#fea613"/></g></g><circle cx="242.384" cy="234.743" fill="#62dbfb" r="19.314"/></g><path d="m356.733 483.189c-31.603-14.358-66.501-44.834-89.054-70.581-97.32 1.094-183.859 20.896-183.872 20.898 43.21 43.41 102.82 70.49 169.07 71.38 37.078.497 72.273-7.325 103.859-21.696z" fill="#fbc56d"/></g><g><path d="m439.857 91.489c-.334-.361-.447-.878-.294-1.351l22.448-69.176c1.577-4.86.725-10.229-2.279-14.362s-7.847-6.6-12.957-6.6h-380.105c-5.109 0-9.953 2.468-12.958 6.601-3.004 4.133-3.855 9.502-2.278 14.363l22.181 68.336c.154.476.047.988-.281 1.337-44.036 47.01-68.066 108.389-67.662 172.83.415 66.179 26.184 128.355 72.561 175.076 46.38 46.724 108.365 72.944 174.534 73.83 1.155.015 2.308.023 3.461.023 66.308 0 128.665-25.558 175.925-72.189 48.091-47.452 74.576-110.788 74.576-178.341-.001-63.408-23.749-123.915-66.872-170.377zm-186.889 405.884c-57.508-.77-111.636-21.897-153.929-59.77 23.742-4.729 47.763-8.432 71.592-11.008 4.118-.445 7.096-4.144 6.651-8.262-.445-4.119-4.149-7.105-8.262-6.651-27.667 2.99-55.585 7.47-83.044 13.296-41.759-43.563-64.923-100.778-65.304-161.605-.195-31.082 5.671-61.399 17.007-89.529l22.865-9.888c22.521-9.74 48.191-7.481 68.666 6.039 25.76 17.009 58.979 19.13 86.693 5.533l8.39-4.116c19.979-9.803 43.834-9.803 63.813 0l8.39 4.116c12.128 5.95 25.309 8.891 38.458 8.891 16.899 0 33.747-4.857 48.233-14.423 2.208-1.457 4.568-2.829 7.017-4.078 3.69-1.882 5.155-6.399 3.273-10.089s-6.4-5.156-10.089-3.273c-2.945 1.502-5.793 3.159-8.465 4.922-21.34 14.092-48.861 15.849-71.82 4.583l-8.39-4.116c-24.117-11.833-52.912-11.833-77.027 0l-8.39 4.116c-22.959 11.265-50.479 9.509-71.82-4.584-24.717-16.321-55.702-19.046-82.886-7.288l-7.526 3.255c9.839-18.937 22.3-36.624 37.218-52.55 4.063-4.335 5.443-10.552 3.602-16.224l-22.182-68.337c-.106-.327-.058-.634.145-.913.202-.279.479-.42.823-.42h380.104c.344 0 .621.141.823.419.203.278.251.586.145.913l-22.448 69.175c-1.831 5.641-.464 11.842 3.567 16.186 14.573 15.701 26.777 33.115 36.452 51.742l-7.508-3.247c-12.359-5.346-26.006-7.784-39.458-7.051-4.136.225-7.306 3.76-7.081 7.896s3.753 7.318 7.896 7.081c11.145-.607 22.45 1.413 32.688 5.841l22.846 9.88c11.16 27.692 17.03 57.5 17.03 88.029 0 61.267-23.179 118.838-65.405 162.878-5.546-1.169-11.099-2.283-16.66-3.337l12.192-32.88c10.733-27.646 7.427-58.945-8.85-83.737l-16.835-25.645c-6.04-9.2-9.232-19.881-9.232-30.887v-18.612c0-4.82-2.922-9.015-7.443-10.685-4.521-1.671-9.469-.383-12.604 3.28l-8.869 10.366c-8.485 9.918-13.934 21.679-16.092 34.048-2.036-5.881-3.091-12.084-3.091-18.397v-18.612c0-4.821-2.922-9.015-7.444-10.686-4.522-1.672-9.469-.382-12.602 3.28l-8.869 10.366c-20.13 23.528-22.807 57.088-6.66 83.511 12.367 20.237 14.679 45.539 6.185 67.683l-9.335 24.336c-32.973-1.764-65.99-1.534-98.881.711-4.132.282-7.254 3.86-6.972 7.993.282 4.132 3.866 7.262 7.993 6.972 70.318-4.797 141.233-.22 211.002 13.579-44.101 39.56-100.597 60.785-160.286 59.984zm117.264-121.349c-3.91-1.368-8.188.697-9.554 4.606-.293.84-.598 1.677-.922 2.512l-11.288 29.018c-10.877-1.229-21.768-2.248-32.667-3.041l7.653-19.95c10.15-26.46 7.388-56.694-7.391-80.876-12.749-20.862-10.636-47.36 5.258-65.938l2.518-2.942v8.843c0 13.939 4.043 27.466 11.694 39.119l9.438 14.378c.008.011.015.023.023.035l7.374 11.233c7.573 11.536 11.911 24.922 12.542 38.711.189 4.138 3.703 7.342 7.835 7.149 4.138-.189 7.338-3.698 7.149-7.835-.755-16.477-5.937-32.472-14.987-46.256l-6.83-10.405c-5.206-18.217-1.005-37.594 11.344-52.027l2.518-2.943v8.843c0 13.939 4.043 27.467 11.693 39.119l16.835 25.645c13.63 20.762 16.392 46.976 7.388 70.123-.015.037-.028.074-.042.112l-13.145 35.449c-10.26-1.75-20.54-3.302-30.836-4.661l9.904-25.46c.388-.996.752-1.999 1.104-3.003 1.365-3.915-.697-8.192-4.608-9.558z"/><path d="m225.733 331.8c6.207-6.207 9.625-14.458 9.625-23.235s-3.418-17.029-9.625-23.235l-19.225-19.226c-.128-.128-.263-.247-.392-.373-.019-.018-.037-.036-.057-.054-8.482-8.258-19.639-12.807-31.502-12.807-12.069 0-23.417 4.7-31.95 13.234l-31.938 31.938-23.741-22.995c-4.321-4.186-10.692-5.375-16.232-3.027-5.54 2.346-9.119 7.75-9.119 13.766v45.559c0 6.016 3.579 11.419 9.119 13.766 1.888.8 3.872 1.189 5.838 1.189 3.805 0 7.545-1.457 10.395-4.216l23.74-22.995 31.938 31.938c8.534 8.534 19.881 13.234 31.95 13.234s23.416-4.7 31.95-13.234zm-5.376-23.235c0 4.771-1.857 9.255-5.231 12.629l-14.532 14.532c-7.124-7.167-11.25-16.935-11.25-27.161s4.126-19.994 11.25-27.161l14.532 14.532c3.374 3.374 5.231 7.858 5.231 12.629zm-143.78 22.656.003-45.314 23.392 22.658zm76.637 9.198-31.854-31.854 31.854-31.854c5.701-5.701 13.281-8.841 21.344-8.841 5.196 0 10.189 1.311 14.611 3.765-9.405 9.874-14.823 23.102-14.823 36.931 0 13.828 5.418 27.056 14.823 36.93-4.422 2.454-9.414 3.765-14.61 3.765-8.065-.001-15.644-3.141-21.345-8.842z"/><path d="m242.384 261.556c14.785 0 26.814-12.028 26.814-26.813s-12.029-26.814-26.814-26.814-26.813 12.029-26.813 26.814 12.027 26.813 26.813 26.813zm0-38.627c6.514 0 11.814 5.3 11.814 11.814s-5.3 11.813-11.814 11.813-11.813-5.299-11.813-11.813 5.298-11.814 11.813-11.814z"/></g></g></svg>