<?xml version="1.0" standalone="no"?>
<!DOCTYPE svg PUBLIC "-//W3C//DTD SVG 20010904//EN"
 "http://www.w3.org/TR/2001/REC-SVG-20010904/DTD/svg10.dtd">
<svg version="1.0" xmlns="http://www.w3.org/2000/svg"
 width="700.000000pt" height="700.000000pt" viewBox="0 0 700.000000 700.000000"
 preserveAspectRatio="xMidYMid meet">
<metadata>
Created by potrace 1.11, written by Peter Selinger 2001-2013
</metadata>
<g transform="translate(0.000000,700.000000) scale(0.100000,-0.100000)"
fill="#000000" stroke="none">
<path d="M837 6986 c-82 -30 -133 -98 -142 -191 -4 -35 11 -92 76 -292 45
-136 90 -277 101 -313 11 -36 24 -74 28 -85 8 -20 44 -132 85 -263 l23 -73
-69 -77 c-267 -295 -527 -732 -661 -1110 -72 -206 -140 -479 -164 -657 -3 -27
-8 -58 -9 -67 -3 -16 -13 -119 -21 -218 -10 -131 -3 -489 11 -570 3 -14 7 -53
10 -88 4 -35 8 -73 11 -85 3 -12 11 -60 20 -107 49 -275 149 -585 274 -845 51
-106 170 -322 192 -350 5 -5 27 -39 51 -75 116 -178 263 -356 426 -518 126
-126 135 -134 256 -233 443 -365 996 -617 1575 -718 210 -37 333 -46 605 -46
263 1 323 6 575 46 878 143 1705 674 2231 1434 118 170 255 417 324 585 14 36
33 80 41 97 51 112 149 457 179 629 8 49 17 99 19 111 8 38 26 207 31 288 11
156 4 516 -10 575 -2 8 -7 44 -10 80 -4 36 -9 74 -11 85 -2 11 -6 38 -9 60 -3
22 -7 47 -10 55 -2 8 -7 29 -10 47 -15 90 -81 339 -115 433 -23 63 -83 218
-97 250 -47 105 -108 228 -125 253 -11 15 -17 27 -14 27 4 0 -16 36 -44 81
-27 44 -50 82 -50 85 0 8 -136 204 -198 284 -36 47 -99 123 -139 169 -40 46
-71 86 -69 90 2 3 45 134 95 291 51 157 103 317 115 355 110 329 117 361 96
437 -16 55 -86 122 -142 136 -74 19 -5279 16 -5331 -2z"/>
</g>
</svg>
